<svg width="900" height="620" viewBox="0 0 900 620" fill="none" xmlns="http://www.w3.org/2000/svg">
  <rect width="900" height="620" rx="30" fill="#091D30"/>
  <rect x="26" y="26" width="848" height="568" rx="24" fill="#102B45" stroke="#1C4868" stroke-width="2"/>
  <rect x="54" y="54" width="792" height="74" rx="22" fill="#112F49"/>
  <rect x="88" y="84" width="324" height="22" rx="11" fill="#F4F9FD"/>
  <rect x="54" y="156" width="792" height="130" rx="22" fill="#0A243B"/>
  <rect x="88" y="188" width="190" height="16" rx="8" fill="#74D0FF"/>
  <rect x="88" y="220" width="704" height="12" rx="6" fill="#D6E9F9" fill-opacity="0.55"/>
  <rect x="88" y="248" width="664" height="12" rx="6" fill="#D6E9F9" fill-opacity="0.35"/>
  <rect x="54" y="314" width="250" height="226" rx="22" fill="#133958"/>
  <rect x="326" y="314" width="250" height="226" rx="22" fill="#133958"/>
  <rect x="598" y="314" width="248" height="226" rx="22" fill="#133958"/>
  <rect x="84" y="350" width="156" height="18" rx="9" fill="#FFD56B"/>
  <rect x="356" y="350" width="164" height="18" rx="9" fill="#74D0FF"/>
  <rect x="628" y="350" width="174" height="18" rx="9" fill="#F4F9FD"/>
  <rect x="84" y="388" width="186" height="116" rx="16" fill="#0C2943"/>
  <rect x="356" y="388" width="186" height="116" rx="16" fill="#0C2943"/>
  <rect x="628" y="388" width="186" height="116" rx="16" fill="#0C2943"/>
  <text x="84" y="580" fill="#EAF5FE" font-family="Arial, sans-serif" font-size="26" font-weight="700">Tratamiento Nutricio</text>
</svg>
